<svg width="25" height="25" viewBox="0 0 25 25" fill="none" xmlns="http://www.w3.org/2000/svg">
<g clip-path="url(#clip0_2526_313)">
<path d="M25 12.5C25 5.5957 19.4043 0 12.5 0C5.5957 0 0 5.5957 0 12.5C0 19.4043 5.5957 25 12.5 25C19.4043 25 25 19.4043 25 12.5ZM12.9834 18.6914C12.6904 18.5693 12.5 18.2861 12.5 17.9688V14.8438H7.8125C6.94971 14.8438 6.25 14.144 6.25 13.2812V11.7188C6.25 10.856 6.94971 10.1562 7.8125 10.1562H12.5V7.03125C12.5 6.71538 12.69 6.43018 12.9822 6.30957C13.2744 6.18828 13.6101 6.25542 13.8337 6.47895L19.3025 11.9477C19.6076 12.2528 19.6076 12.7475 19.3025 13.0522L13.8337 18.5209C13.6084 18.7451 13.2764 18.8135 12.9834 18.6914Z" fill="white"/>
</g>
<defs>
<clipPath id="clip0_2526_313">
<rect width="25" height="25" fill="white"/>
</clipPath>
</defs>
</svg>
